<svg xmlns="http://www.w3.org/2000/svg" width="705.841" height="441.071" viewBox="0 0 705.841 441.071">
  <g id="barber" transform="translate(0.01 -0.032)">
    <path id="Path_1" data-name="Path 1" d="M733.83,435.029a111.058,111.058,0,0,0-46.891-90.956,113.971,113.971,0,0,0,.617-11.581c0-61.168-48.89-110.755-109.207-110.755a107.528,107.528,0,0,0-53.005,13.907c-42.689-28.085-98.422-45.083-159.393-45.083-99.205,0-184.541,45.009-222.4,109.546-2.1-.123-4.22-.191-6.355-.191-60.3,0-109.207,49.587-109.207,110.755a111.385,111.385,0,0,0,17.973,60.891h0c0,55.035,51.944,99.644,115.994,99.644H626.622c50.309,0,91.092-35.026,91.092-78.24h0A111.379,111.379,0,0,0,733.83,435.029Z" transform="translate(-28 -130.102)" fill="#c6c5cb" opacity="0.1"/>
    <path id="Path_2" data-name="Path 2" d="M818.941,234.776a108.122,108.122,0,0,0-13.648,6.522c-1.968,1.172-3.856,2.468-5.88,3.535a73.114,73.114,0,0,1-6.787,2.974,151.3,151.3,0,0,0-18.411,9.02c.512-6.633-.457-13.839-4.424-19.009a16.655,16.655,0,0,0-1.937-2.135c-2.807-2.6-6.787-3.276-9.545-5.553,1.678-2.949,5.4-5.627,7.941-7.879q4.109-3.634,8.527-6.892A121.4,121.4,0,0,1,793.5,203.988a43.574,43.574,0,0,1,13.129-4.492,2.85,2.85,0,0,1,1.734.154,2.933,2.933,0,0,1,1.148,2.079c.858,3.98,1.3,8.064,2.011,12.074a51.482,51.482,0,0,0,1.425,6.1,74.5,74.5,0,0,0,2.659,6.978Q817.282,230.827,818.941,234.776Z" transform="translate(-307.721 -133.498)" fill="#fbbebe"/>
    <path id="Path_3" data-name="Path 3" d="M594.31,414.87A38.87,38.87,0,1,1,555.44,376a38.868,38.868,0,0,1,38.87,38.87Z" transform="translate(-215.132 -201.127)" fill="#be6f72"/>
    <path id="Path_4" data-name="Path 4" d="M556.242,480.18a63.3,63.3,0,0,1,5.51,11.106,21.012,21.012,0,0,1,.753,12.223c13.241-6.972,29-6.41,43.572-9.94a1.567,1.567,0,0,0,1.006-.531,1.6,1.6,0,0,0,0-1.283,106.67,106.67,0,0,1-3.474-34.675l-7.607,4.5a97.39,97.39,0,0,1-10.335,5.553c-5.028,2.2-10.365,3.535-15.616,5.078-4.159,1.234-12.414,2.832-15.03,6.466A7.342,7.342,0,0,1,556.242,480.18Z" transform="translate(-229.859 -232.182)" fill="#be6f72"/>
    <path id="Path_5" data-name="Path 5" d="M515.991,384.492c-2.53,1.018-5.5,2.19-7.83.765a5.748,5.748,0,0,1-2.307-5.251,23.769,23.769,0,0,1,1.475-5.818c1.234-3.93,1.9-8.021,3.276-11.933s3.622-7.682,7.188-9.748c6.565-3.8,15.061-.66,22.347-2.764,3.085-.882,5.769-2.659,8.638-4.054s6.1-2.468,9.193-1.721c3.628.845,6.306,3.9,9.687,5.454,3.7,1.7,8.132,1.586,11.5,3.862,2.388,1.617,3.893,4.226,5.232,6.787a128.832,128.832,0,0,1,10.088,25.852,39.209,39.209,0,0,1,1.647,9.872c.031,4.282-1.129,8.477-2.277,12.611L592,414.946a29.982,29.982,0,0,1-2.684,7.169,9.824,9.824,0,0,1-5.769,4.763,7.109,7.109,0,0,1-8.021-3.634,14.464,14.464,0,0,1-.833-5.806,64.631,64.631,0,0,0-1.234-11.476,10.96,10.96,0,0,0-2.184-5.294c-1.666-1.851-4.319-2.468-6.787-2.511-2.887-.037-6.053.747-7.737,3.085-1.351,1.888-1.586,4.541-3.381,6.016a5.6,5.6,0,0,1-2.746,1.117,9.175,9.175,0,0,1-9.705-5.831c-.568-1.629-.845-3.653-2.388-4.418a15.936,15.936,0,0,0-2.616-.586c-2.628-.8-3.319-4.128-3.56-6.861-.278-3.2.79-9.526-3.19-9.742C524.875,380.7,519.933,383.178,515.991,384.492Z" transform="translate(-211.024 -188.765)" fill="#3d3b52"/>
    <path id="Path_6" data-name="Path 6" d="M529.9,467.186c-1.37.66-2.869,1.431-3.406,2.85-.21.555-.247,1.166-.438,1.734-.87,2.511-4.263,3-6.016,5a7.879,7.879,0,0,0-1.549,3.461,25.1,25.1,0,0,0,1.086,14.956,12.067,12.067,0,0,0,2.468,4.072c3.134,3.2,8.539,3.134,12.445.956s6.6-6,8.891-9.872a34.352,34.352,0,0,0,3.029-6.17,37.632,37.632,0,0,0,1.5-6.719c1.37-8.891,3.159-18.75,2.542-27.764-1.851-.117-5.386-.247-7.021.913-2.048,1.456-1.481,4.393-2.221,6.522C539.462,462.25,534.378,464.952,529.9,467.186Z" transform="translate(-215.615 -229.325)" fill="#3d3b52"/>
    <path id="Path_7" data-name="Path 7" d="M531.957,472.343c-2.314.142-6.46-2.419-8.78-2.289A72.246,72.246,0,0,1,519,461.5c1.234-1.771,3.221-2.2,6.225,0C527.638,463.2,530.97,469.067,531.957,472.343Z" transform="translate(-216.063 -233.303)" fill="#3d3b52"/>
    <path id="Path_8" data-name="Path 8" d="M576.9,319.979c-2.511,1.327-4.066,1.388-5.306,1.123s-3.7.969-3.7.969c-21.749,7.441-22.606,10.952-22.606,10.952l25.179-8.891c4.843-2.122,4.936-1.376,4.936-1.376,3.7,3.48,8.416,1.123,8.416,1.123s6.522-3.085,4.6-6.053S579.422,318.677,576.9,319.979Zm10.489-.555s-1.851,4.936-8.508,4.134c0,0-3.27-.481-1.888-2.918,0,0,6.787-2.85,8.582-2.647s1.8,1.456,1.8,1.456Z" transform="translate(-226.132 -178.423)" fill="#e8e8f0"/>
    <path id="Path_9" data-name="Path 9" d="M576.9,319.979c-2.511,1.327-4.066,1.388-5.306,1.123s-3.7.969-3.7.969c-21.749,7.441-22.606,10.952-22.606,10.952l25.179-8.891c4.843-2.122,4.936-1.376,4.936-1.376,3.7,3.48,8.416,1.123,8.416,1.123s6.522-3.085,4.6-6.053S579.422,318.677,576.9,319.979Zm10.489-.555s-1.851,4.936-8.508,4.134c0,0-3.27-.481-1.888-2.918,0,0,6.787-2.85,8.582-2.647s1.8,1.456,1.8,1.456Z" transform="translate(-226.132 -178.423)" opacity="0.1"/>
    <path id="Path_10" data-name="Path 10" d="M580.667,299.7c-3.764.123-4.547,2.937-4.547,2.937a5.423,5.423,0,0,0-.352,6.5l-6.682,6.645a6.719,6.719,0,0,0-3.122,2.468S551.293,331.2,551.509,332.38c0,0,2.394,1.234,17.578-12.605l3.986-3.529s.882-6.6,7.108-7.848c0,0,.617.271.944-1.2a7,7,0,0,1,1.376-1.894C583.327,304.542,584.431,299.569,580.667,299.7Zm1.055,4.461s-2.018,5.207-4.893,3.7-.08-4.979-.08-4.979c4.985-4.85,4.973,1.277,4.973,1.277Z" transform="translate(-228.513 -171.902)" fill="#e8e8f0"/>
    <circle id="Ellipse_1" data-name="Ellipse 1" cx="0.796" cy="0.796" r="0.796" transform="translate(339.907 144.875)" opacity="0.1"/>
    <path id="Path_11" data-name="Path 11" d="M650.04,283.751a52.533,52.533,0,0,0-7.213-3.134,48.017,48.017,0,0,0-10.1-1.728q-16.2-1.542-32.5-1.789a16.559,16.559,0,0,0-5.7.617,12.161,12.161,0,0,0-4.319,2.832,21.5,21.5,0,0,0-4.936,7.145,3.171,3.171,0,0,0-.308,2.209c.247.716,1.234,1.191,1.8.685a9.2,9.2,0,0,0-3.011,9.9,5.621,5.621,0,0,0-3,4.627,29.424,29.424,0,0,0,13.487-.654,2.4,2.4,0,0,0-2.739,2.24,3.665,3.665,0,0,0,2.042,3.239,8.2,8.2,0,0,0,3.924.777c5.226,0,10.31-1.771,15.523-2,3.986-.179,8.095.543,11.9-.617,4.418-1.37,8.36-5.251,12.914-4.442,3.634.648,6,4.023,8.373,6.849,3.788,4.51,8.471,8.163,13.117,11.784,3.578,2.789,7.317,5.652,11.754,6.6a6.527,6.527,0,0,0,4.023-.191,6.867,6.867,0,0,0,2.616-2.468c4.782-6.787,4.788-15.332,4.51-23.285-.142-4.066-1.03-4.615-4.794-6.3q-6.552-2.943-13.055-6.028Q657.154,287.255,650.04,283.751Z" transform="translate(-239.71 -163.247)" fill="#fbbebe"/>
    <path id="Path_12" data-name="Path 12" d="M752.78,310.507a13.009,13.009,0,0,1-2.32,1.092c-1.351.321-2.727-.253-4.041-.7-5.553-1.851-11.723-1.413-17.091-3.7a38.871,38.871,0,0,1-6.411,28.906c-1.111,1.579-2.573,3.2-4.5,3.319.858,2.635,3.5,4.226,6,5.411a64.451,64.451,0,0,0,12.488,4.405c1.234.29,2.739.432,3.455-.617.432-.617.617-1.672,1.376-1.635,1.16,1.234.777,3.764,2.382,4.319a3.085,3.085,0,0,0,1.524,0l3.578-.617a6.558,6.558,0,0,0,3.011-1.037,5.9,5.9,0,0,0,1.376-1.752c4.01-6.83,5.553-14.734,6.17-22.539a82.947,82.947,0,0,0,.413-11.871C759.949,310.161,755.68,309.156,752.78,310.507Z" transform="translate(-292.443 -174.776)" fill="#e8e8f0"/>
    <path id="Path_13" data-name="Path 13" d="M752.78,310.507a13.009,13.009,0,0,1-2.32,1.092c-1.351.321-2.727-.253-4.041-.7-5.553-1.851-11.723-1.413-17.091-3.7a38.871,38.871,0,0,1-6.411,28.906c-1.111,1.579-2.573,3.2-4.5,3.319.858,2.635,3.5,4.226,6,5.411a64.451,64.451,0,0,0,12.488,4.405c1.234.29,2.739.432,3.455-.617.432-.617.617-1.672,1.376-1.635,1.16,1.234.777,3.764,2.382,4.319a3.085,3.085,0,0,0,1.524,0l3.578-.617a6.558,6.558,0,0,0,3.011-1.037,5.9,5.9,0,0,0,1.376-1.752c4.01-6.83,5.553-14.734,6.17-22.539a82.947,82.947,0,0,0,.413-11.871C759.949,310.161,755.68,309.156,752.78,310.507Z" transform="translate(-292.443 -174.776)" opacity="0.1"/>
    <path id="Path_14" data-name="Path 14" d="M408.376,630.866c-1.758-2.258-3.566-4.652-6.17-5.843a16.9,16.9,0,0,0-4.689-1.148c-8.681-1.234-17.381-2.517-26.142-2.758-2.863-.08-5.935,0-8.268,1.672-2.672,1.906-3.7,5.417-3.85,8.693a24.519,24.519,0,0,0,9.452,20.361c5.244,4,11.871,5.67,18.337,6.99q5.1,1.046,10.248,1.851A66.88,66.88,0,0,1,407.53,662.7c7.083,2.271,13.333,7.4,20.762,7.83a1.635,1.635,0,0,0,1.018-.173,1.727,1.727,0,0,0,.617-1.049c1.635-5.769,7.305-19.583,0-23.618-3.819-2.1-8.058-2.2-11.8-4.868A49.076,49.076,0,0,1,408.376,630.866Z" transform="translate(-154.872 -295.002)" fill="#be6f72"/>
    <path id="Path_15" data-name="Path 15" d="M325.049,678.947c-4.806-4.183-11.439-6.4-14.931-11.723a27.967,27.967,0,0,1-3.085-7.8l-2.271-8.157a4.25,4.25,0,0,1-.234-1.561c.173-1.7,2.178-2.511,3.868-2.776,8.638-1.345,17.634,2.135,24.1,8.021s10.618,14.006,13.055,22.421a2.1,2.1,0,0,1,.074,1.345,2.074,2.074,0,0,1-.95.9c-3.122,1.851-7.317,4.547-10.964,5.115S327.647,681.18,325.049,678.947Z" transform="translate(-133.916 -304.787)" fill="#be6f72"/>
    <path id="Path_16" data-name="Path 16" d="M658.4,641.737l25.3,10.125a10.779,10.779,0,0,1,6.484,12.5l-18.824,79.178H624.29l8.194-90.08S650.376,638.653,658.4,641.737Z" transform="translate(-256.39 -302.746)"/>
    <path id="Path_17" data-name="Path 17" d="M548.825,576.735c-.469,1.024-1.16,2.036-1.055,3.153a12.209,12.209,0,0,1,.358,1.956c-.1,1.3-1.6,2.018-2.894,2.03s-2.6-.407-3.875-.185c-2.1.358-3.517,2.289-5.331,3.406-2.53,1.555-5.689,1.462-8.638,1.728-6.17.555-12.007,2.869-17.59,5.5-3.794,1.789-7.823,4.084-9.255,8.021-2.055,5.553,1.931,11.4,2.813,17.276a33.153,33.153,0,0,1,.173,5.96c-.648,20.743-1.765,41.727-2.949,62.445l-226.163.265,11.137-19.515c10.859-19.034,22.008-38.426,38.389-52.981a34.49,34.49,0,0,1,8.107-5.454l13.136,11.723a13.217,13.217,0,0,0,3.609,2.548c2.468,1.006,5.232.432,7.879.518,5.09.167,9.742,2.764,14.16,5.3a81.277,81.277,0,0,1,9.329,5.917c1.74,1.333,4.251,2.166,6.065,3.393l-.426-22.15a18.518,18.518,0,0,1,.524-5.954c1.16-3.7,4.473-6.318,6.065-9.841.722-1.586,1.074-3.313,1.678-4.936a33.628,33.628,0,0,1,3.171-5.954l8.188-13.154c2.024-3.245,4.041-6.491,6.238-9.619,9.606-13.7,22.539-24.68,35.119-35.693a14.7,14.7,0,0,1,2.067-8.983,13.807,13.807,0,0,0,1.592-2.894,12.069,12.069,0,0,0,.228-3.7v-.95a8.6,8.6,0,0,1,2.382-5.38,16.361,16.361,0,0,1,5.275-3.264,172.329,172.329,0,0,1,30.541-10.353,9.873,9.873,0,0,1,5.09-.265c.5,1.61,2.2,2.178,3.906,2.585l1.092.253a18.288,18.288,0,0,1,7.86,3.838,29.3,29.3,0,0,1,5.627,7.62c12.013,20.626,17.547,47.687,36.131,62.674C549.479,574.329,549.294,575.748,548.825,576.735Z" transform="translate(-122.386 -247.245)" fill="#e8e8f0"/>
    <path id="Path_18" data-name="Path 18" d="M809.953,209.66c-6.5,14.3-19.318,28.381-36.051,28.381a40.725,40.725,0,0,1-4.091-.2,16.664,16.664,0,0,0-1.937-2.135c-2.807-2.6-6.787-3.276-9.545-5.553,1.678-2.949,5.4-5.627,7.941-7.879q4.109-3.634,8.527-6.892a121.4,121.4,0,0,1,18.726-11.371,43.574,43.574,0,0,1,13.13-4.492,2.85,2.85,0,0,1,1.734.154,2.933,2.933,0,0,1,1.148,2.079C810.391,205.7,809.238,205.65,809.953,209.66Z" transform="translate(-307.729 -133.505)" opacity="0.1"/>
    <circle id="Ellipse_2" data-name="Ellipse 2" cx="41.338" cy="41.338" r="41.338" transform="translate(424.835 20.619)" fill="#fbbebe"/>
    <path id="Path_19" data-name="Path 19" d="M852.238,347.575a75.13,75.13,0,0,1-3.5,14.678c-.617,1.734-1.376,3.424-2.159,5.09a97.9,97.9,0,0,0-8.323,30.985,17.133,17.133,0,0,1-.463,2.5c-.907,3.455-2.82,6.54-4.282,9.792a79.729,79.729,0,0,0-3.7,10.816,6.035,6.035,0,0,0-.346,2.906,10.814,10.814,0,0,0,1.512,2.8c2.739,4.72-.426,10.489-1.493,15.832-.364,1.851-.524,3.862-1.728,5.306a8.823,8.823,0,0,1-4.128,2.32,467.237,467.237,0,0,1-65.981,17.177c-3.338.617-6.787,1.191-10.1.574s-6.614-2.665-7.749-5.861a16.03,16.03,0,0,1-.487-5.824c.123-4.121,0-8.268-.222-12.42-.716-13.666-2.338-27.382,1.234-40.474,1.067-3.862,2.573-7.589,3.782-11.408,2.363-7.447,2.974-15.147,3.566-22.872a130.588,130.588,0,0,1,2.388-19.04c1.061-4.683.358-9.551.3-14.351a54.042,54.042,0,0,1,9.255-30.849,19.424,19.424,0,0,0,2.8-4.936c.79-2.591.247-5.374-.111-8.064a56.613,56.613,0,0,1,1.074-20.552,20.977,20.977,0,0,1,2.844-7.089,23.8,23.8,0,0,1,5.942-5.522A156.1,156.1,0,0,1,814,237.64c1.376,3.48,2.7,7.546,3.751,11.106.142.481.241,1.092-.154,1.4s-.8.142-1.234.154a2.221,2.221,0,0,0-1.907,1.635,4.035,4.035,0,0,0,.234,2.616c.839,2.159,2.647,3.77,4.387,5.294l8.749,7.632a21.415,21.415,0,0,0,3.412,2.6c1.1.617,2.3,1.055,3.424,1.623,4.529,2.289,7.657,6.75,9.4,11.513s.956,10.489,3.233,15.011C854.867,313.221,854.805,330.959,852.238,347.575Z" transform="translate(-299.976 -148.134)" fill="#e8e8f0"/>
    <path id="Path_20" data-name="Path 20" d="M898.13,670.08a66.154,66.154,0,0,1-.191,32.608c-.5,1.906-1.086,3.881-.691,5.812.228,1.1.765,2.129.888,3.245a9.5,9.5,0,0,1-.327,3.023c-2.739,12.957-1.758,26.419-.654,39.641-.469,0-.617.216-1.111.216H884.156c-.21-3.474-4.529-6.077-6.639-8.848a22.9,22.9,0,0,1-3.93-19.244c1.851-7.4,7.305-13.321,10.1-20.4,3.085-7.786,2.82-16.6,6.1-24.3C891.664,677.385,895.181,673.911,898.13,670.08Z" transform="translate(-351.619 -313.764)" fill="#3f3d56"/>
    <path id="Path_21" data-name="Path 21" d="M898.13,670.08a66.154,66.154,0,0,1-.191,32.608c-.5,1.906-1.086,3.881-.691,5.812.228,1.1.765,2.129.888,3.245a9.5,9.5,0,0,1-.327,3.023,86.892,86.892,0,0,0-1.725,15.475,215.92,215.92,0,0,0,1.071,24.166c-.469,0-.617.216-1.111.216H884.156c-.21-3.474-4.529-6.077-6.639-8.848a22.9,22.9,0,0,1-3.93-19.244c1.851-7.4,7.305-13.321,10.1-20.4,3.085-7.786,2.82-16.6,6.1-24.3C891.664,677.385,895.181,673.911,898.13,670.08Z" transform="translate(-351.619 -313.764)"/>
    <path id="Path_22" data-name="Path 22" d="M823.492,573.638c-10.106-1.617-19.9,3.474-29.659,6.565-14.913,4.72-31.331,5.01-45.108,12.42A11.52,11.52,0,0,0,745.43,595a9.433,9.433,0,0,0-2.03,4.825,17.122,17.122,0,0,0,2.141,11.322,39.414,39.414,0,0,1,2.6,4.356c1.579,3.7.524,7.971.253,12.019-.617,9.039,2.888,17.837,3.591,26.87.42,5.325-.13,10.766,1.123,15.962.784,3.258,2.258,6.33,2.869,9.625s.345,6.515.549,9.773c.574,9.335,4.825,18.4,3.788,27.7l80.208.265c-2.974-10.347-5.448-21.045-2.752-31.466a74.175,74.175,0,0,1,3.48-9.656c4.486-10.84,9.094-21.712,11.568-33.175s2.7-23.7-1.493-34.662c-4.664-12.216-14.579-22.378-16.739-35.273C830.889,573,827.2,574.23,823.492,573.638Z" transform="translate(-301.931 -276.706)"/>
    <path id="Path_23" data-name="Path 23" d="M722.761,134.385c-.777-1.629-2.98-2.7-4.461-1.672s-1.289,3.332-1.654,5.183c-.7,3.64-4.319,6.121-8.021,6.7a6.256,6.256,0,0,1-5.01-.956,6.973,6.973,0,0,1-1.851-3.017c-3.7-9.872-1.45-21.4,4.609-30.01a21.122,21.122,0,0,1,4.72-5.047c5.1-3.7,11.926-3.7,18.238-3.5a8.638,8.638,0,0,0,3.795-.438,10.485,10.485,0,0,0,2.517-1.851c5.979-5.257,14.24-7.466,22.212-7.114s15.641,3.085,22.724,6.719a34.8,34.8,0,0,1,9.36,6.441c6.374,6.559,7.928,16.276,9.181,25.334,1.345,9.773,2.684,19.818.42,29.424-1.283,5.442-3.7,10.76-3.418,16.344a131.972,131.972,0,0,1-15.6,3.449c-2.468.389-5.318.617-7.126-1.129a7.058,7.058,0,0,1-1.629-2.888c-1.956-5.781-1.3-12.383-4.257-17.726a14.869,14.869,0,0,0-12.2-7.515c-1.937-.068-4.14.407-5.133,2.067a12.753,12.753,0,0,0-.876,2.542,7.566,7.566,0,0,1-10.674,3.869c-1.851-1.16-3.116-3.085-4.788-4.529-2.122-1.82-4.843-2.758-7.225-4.226C718.682,145.916,725.833,140.832,722.761,134.385Z" transform="translate(-285.376 -92.59)"/>
    <path id="Path_24" data-name="Path 24" d="M607.293,499.242c-3.375,1.08-6.448,3.036-9.73,4.411-5.781,2.412-12.136,2.974-18.2,4.516a74.765,74.765,0,0,0-16.727,6.738c-.389.21-1.61,1.234-2.585,1.937v-.95a8.6,8.6,0,0,1,2.382-5.38,16.362,16.362,0,0,1,5.275-3.264,172.328,172.328,0,0,1,30.566-10.335,9.874,9.874,0,0,1,5.09-.265C603.887,498.26,605.59,498.828,607.293,499.242Z" transform="translate(-231.786 -247.245)" fill="#3f3d56"/>
    <path id="Path_25" data-name="Path 25" d="M481.21,747.471c6.639,7.4,12.593,15.486,20.317,21.73-8.915-11.84-21.706-19.744-33.268-28.671-2.345-1.814-7.034-4.387-8.453-7.009-2.24-4.109,2.709-1.191,4.763-.074C470.986,736.933,476.366,742.079,481.21,747.471Z" transform="translate(-193.173 -337.248)" opacity="0.1"/>
    <path id="Path_26" data-name="Path 26" d="M826.915,376.023A30.092,30.092,0,0,1,824.6,383.7c-2.468,6.17-5.115,12.278-8.841,17.751-2.567,3.77-5.621,7.176-8.3,10.859a124.642,124.642,0,0,0-7.552,12.173q-6.312,11.18-12.3,22.545a76.623,76.623,0,0,1-6.262,10.563,72.8,72.8,0,0,1-5.553,6.318c-4.319,4.553-8.755,8.761-12.617,13.7-1.913,2.468-5.1,3.418-8.083,4.257a10.993,10.993,0,0,1-3.085.555,10.652,10.652,0,0,1-3.085-.685,78.2,78.2,0,0,1-9.748-3.7c-.716-13.666-2.338-27.382,1.234-40.474,1.067-3.862,2.573-7.589,3.782-11.408,2.363-7.447,2.974-15.147,3.566-22.872.734-1.549,1.518-3.085,2.277-4.578,5.146-10.168,9.483-21.366,8.144-32.7a61.067,61.067,0,0,1-.71-6.17,23.245,23.245,0,0,1,1.265-7.447,41.178,41.178,0,0,1,23.445-25.3,13.123,13.123,0,0,1,5.553-1.234c2.468.13,4.831,1.413,7.237.944a46.248,46.248,0,0,1,19.676,17.121c4.93,7.416,5.2,17.325,10.563,24.433A10.9,10.9,0,0,1,826.915,376.023Z" transform="translate(-300.011 -181.919)" opacity="0.1"/>
    <path id="Path_27" data-name="Path 27" d="M556.353,259.961l-.259-.561-10.082,4.652-1.684.777-1.678.771,14.215,30.819,1.678-.777,1.684-.777,10.082-4.652-.259-.555-10.082,4.652-.259-.561,10.082-4.652-.259-.561-10.082,4.652-.259-.561,10.082-4.652-.253-.561-10.088,4.652-.259-.555,10.088-4.652-.259-.561-10.088,4.652-.259-.561,10.088-4.652-.259-.561L557.9,289.824l-.259-.561,10.082-4.652-.259-.555-10.082,4.652-.259-.561,10.082-4.652-.259-.561-10.082,4.652-.259-.561,10.088-4.652-.259-.561-10.088,4.652-.259-.555,10.088-4.658-.259-.555-10.088,4.652-.253-.561,10.082-4.652-.259-.561-10.082,4.652-.259-.561,10.082-4.652-.259-.561L554.8,283.1l-.259-.555,10.082-4.652-.253-.561-10.088,4.652-.259-.561,10.088-4.652-.259-.561-10.088,4.652-.253-.561,10.082-4.646-.259-.561-10.082,4.652-.259-.561,10.082-4.652-.259-.561-10.082,4.652-.259-.561,10.082-4.652-.253-.561L552.213,277.5l-.259-.561,10.088-4.652-.259-.561L551.7,276.38l-.259-.561,10.088-4.652-.259-.561-10.082,4.652-.259-.561,10.082-4.652-.259-.555-10.082,4.652-.259-.561,10.082-4.652-.259-.561-10.082,4.652-.259-.561,10.088-4.652-.259-.555-10.088,4.646-.259-.555,10.088-4.652-.259-.561-10.088,4.652-.253-.561,10.082-4.652-.259-.561L548.6,269.654l-.259-.561,10.082-4.652-.259-.555-10.082,4.652-.259-.561,10.082-4.652-.253-.561-10.088,4.652-.259-.561L557.39,262.2l-.259-.561-10.088,4.652-.259-.555,10.088-4.652-.259-.561-10.088,4.652-.253-.561Z" transform="translate(-207.845 -99.341)"/>
    <path id="Path_28" data-name="Path 28" d="M591.214,426.879a9.954,9.954,0,0,1-5.769,4.763,7.109,7.109,0,0,1-8.021-3.634,14.462,14.462,0,0,1-.833-5.806,64.626,64.626,0,0,0-1.234-11.476,10.958,10.958,0,0,0-2.184-5.294c-1.666-1.851-4.319-2.468-6.787-2.511-2.887-.037-6.053.747-7.737,3.085-1.351,1.888-1.586,4.541-3.381,6.016a5.6,5.6,0,0,1-2.746,1.117,9.175,9.175,0,0,1-9.705-5.831c-.568-1.629-.845-3.653-2.388-4.418a15.93,15.93,0,0,0-2.616-.586c-2.628-.8-3.319-4.128-3.56-6.861-.278-3.2.79-9.526-3.19-9.742-4.257-.234-9.2,2.24-13.142,3.554-2.53,1.018-5.5,2.19-7.83.765a5.748,5.748,0,0,1-2.307-5.251,23.771,23.771,0,0,1,1.475-5.818c1.037-3.233,1.66-6.589,2.61-9.872a29.3,29.3,0,0,0-1.191,2.851c-1.37,3.893-2.011,8.021-3.27,11.932a23.231,23.231,0,0,0-1.475,5.818,5.79,5.79,0,0,0,2.308,5.251c2.326,1.425,5.3.253,7.83-.765,3.943-1.314,8.885-3.788,13.142-3.554,3.98.216,2.912,6.54,3.19,9.742.241,2.733.932,6.065,3.56,6.861a15.925,15.925,0,0,1,2.616.586c1.542.765,1.851,2.789,2.388,4.418a9.175,9.175,0,0,0,9.705,5.831,5.6,5.6,0,0,0,2.746-1.117c1.8-1.475,2.03-4.128,3.381-6.016,1.684-2.351,4.85-3.134,7.737-3.085,2.468.037,5.152.654,6.787,2.511a10.959,10.959,0,0,1,2.184,5.294,64.626,64.626,0,0,1,1.234,11.476c.043,1.968,0,4.017.833,5.806a7.106,7.106,0,0,0,8.021,3.634,9.972,9.972,0,0,0,5.769-4.763,24.674,24.674,0,0,0,2.271-5.7C591.5,426.373,591.362,426.626,591.214,426.879Z" transform="translate(-211.055 -198.477)" opacity="0.1"/>
    <path id="Path_29" data-name="Path 29" d="M651,424.3a199.582,199.582,0,0,1-13.827-15.215,126.86,126.86,0,0,1-11.92-15.628c-2.116-3.461-4-7.237-7.256-9.662-2.468-1.851-5.485-2.715-8.212-4.128-1.962-1.018-3.77-2.308-5.707-3.363a27.147,27.147,0,0,0-13.784-3.252c-1.993.068-4.257.531-5.281,2.246-.352.586-.518,1.271-.876,1.851-1.1,1.851-3.764,2.375-4.671,4.319-1.53,3.27,3.085,6.275,3.375,9.872.136,1.8-.858,3.48-1.148,5.263-.494,3.085,1.1,6.028,2.647,8.718,3.3,5.763,7.318,12.074,13.8,13.524,2.3.512,4.72.345,6.96,1.074a16.461,16.461,0,0,1,4.936,2.943,80.824,80.824,0,0,1,15.943,16.788c2.085,2.943,3.973,6.016,6.077,8.94a72.681,72.681,0,0,0,25.648,22.051l7.57-24.063c1.166-3.7,2.085-8.78-1.234-11.667C659.886,431.165,655.092,428.21,651,424.3Z" transform="translate(-239.104 -199.993)" fill="#fbbebe"/>
    <path id="Path_30" data-name="Path 30" d="M776.773,321.834c-2.406.463-4.794-.814-7.237-.944a13.087,13.087,0,0,0-5.553,1.234,41.2,41.2,0,0,0-23.446,25.3,23.484,23.484,0,0,0-1.246,7.472c.037,2.067.469,4.1.71,6.17,1.339,11.316-3,22.52-8.138,32.7-2.844,5.621-6.053,11.55-5.38,17.812a3.474,3.474,0,0,1-.29,2.468c-.617.814-1.95.858-2.523,1.715s-.049,2.153-.506,3.122c-.617,1.37-2.628,1.2-4.066.716a32.7,32.7,0,0,1-10.754-6.108c-5.127,2.992-10.612,6.559-12.3,12.247a27.181,27.181,0,0,0-.821,4.43l-2.647,22.088c-.352,2.925-.524,6.355,1.684,8.3,3.807,3.369,10.588-.993,14.66,2.055a12.454,12.454,0,0,1,2.468,2.992c4.448,6.1,12.105,8.786,19.287,11.106a10.839,10.839,0,0,0,3.085.679,10.487,10.487,0,0,0,3.085-.555c2.986-.839,6.17-1.814,8.083-4.251,3.869-4.936,8.3-9.144,12.624-13.7a74.821,74.821,0,0,0,5.553-6.318A76.441,76.441,0,0,0,769.37,442q5.979-11.365,12.29-22.545a124.482,124.482,0,0,1,7.62-12.118c2.684-3.7,5.732-7.1,8.3-10.859,3.7-5.479,6.361-11.612,8.841-17.751a30.281,30.281,0,0,0,2.32-7.675,10.624,10.624,0,0,0-1.728-7.657c-5.362-7.114-5.627-17.016-10.557-24.433A46.2,46.2,0,0,0,776.773,321.834Z" transform="translate(-282.465 -180.02)" fill="#e8e8f0"/>
    <path id="Path_31" data-name="Path 31" d="M591.241,356.118a1.166,1.166,0,0,0-.531.833c0,.308.253.549.389.827.376.79-.228,1.7-.919,2.246s-1.53.962-1.906,1.758a.616.616,0,0,0-.074.345.741.741,0,0,0,.271.407,3.362,3.362,0,0,0,1.524,1,3.817,3.817,0,0,0,2.653-.938,14.361,14.361,0,0,1,2.764-1.357,2.7,2.7,0,0,0,.833-.413,1.85,1.85,0,0,0,.537-1.148,6.2,6.2,0,0,0-1.561-4.319C594.085,353.848,592.209,355.285,591.241,356.118Z" transform="translate(-242.566 -192.968)" fill="#3f3d56"/>
    <rect id="Rectangle_5" data-name="Rectangle 5" width="73.804" height="37.803" rx="1.54" transform="translate(189.127 312.875) rotate(27.04)" fill="#3f3d56"/>
    <rect id="Rectangle_6" data-name="Rectangle 6" width="62.032" height="30.837" transform="translate(192.869 318.617) rotate(27.04)" fill="#e8e8f0"/>
    <ellipse id="Ellipse_3" data-name="Ellipse 3" cx="0.673" cy="1.018" rx="0.673" ry="1.018" transform="translate(182.524 331.412) rotate(-62.96)" fill="#e6e8ec"/>
    <ellipse id="Ellipse_4" data-name="Ellipse 4" cx="1.104" cy="1.678" rx="1.104" ry="1.678" transform="translate(241.572 362.115) rotate(-62.96)" fill="#e6e8ec"/>
    <g id="Group_8" data-name="Group 8" transform="translate(414.597 35.399)" opacity="0.1">
      <path id="Path_32" data-name="Path 32" d="M813.647,187.171c-1.283,5.442-3.7,10.76-3.418,16.344a131.978,131.978,0,0,1-15.6,3.449c-2.468.389-5.318.617-7.126-1.129a7.059,7.059,0,0,1-1.629-2.887c-1.956-5.781-1.3-12.383-4.257-17.726a14.87,14.87,0,0,0-12.2-7.515c-1.937-.068-4.14.407-5.133,2.067a12.757,12.757,0,0,0-.876,2.542,7.566,7.566,0,0,1-10.674,3.868c-1.851-1.16-3.116-3.085-4.788-4.529-2.122-1.82-4.843-2.758-7.225-4.226a7.545,7.545,0,0,1-3.616-4.029c-.543,2.968-.7,5.695,3.616,8.348,2.382,1.468,5.1,2.406,7.225,4.226,1.672,1.431,2.912,3.369,4.788,4.529a7.573,7.573,0,0,0,10.674-3.869,12.758,12.758,0,0,1,.876-2.542c.993-1.66,3.2-2.135,5.133-2.067a14.869,14.869,0,0,1,12.2,7.515c2.955,5.343,2.3,11.945,4.257,17.726a7.058,7.058,0,0,0,1.654,2.906c1.808,1.728,4.664,1.518,7.126,1.129a131.969,131.969,0,0,0,15.6-3.449c-.3-5.584,2.135-10.9,3.418-16.344a51.83,51.83,0,0,0,1.178-13.574,47.616,47.616,0,0,1-1.2,9.236Z" transform="translate(-714.093 -158.928)"/>
      <path id="Path_33" data-name="Path 33" d="M723.362,158.067a9.644,9.644,0,0,0-.617-6.046c-.777-1.629-2.98-2.7-4.461-1.672s-1.271,3.332-1.635,5.183c-.7,3.64-4.319,6.121-8.021,6.7a6.256,6.256,0,0,1-5.01-.956,6.973,6.973,0,0,1-1.851-3.017,28.665,28.665,0,0,1-1.709-7.984,29.394,29.394,0,0,0,1.709,12.3,6.972,6.972,0,0,0,1.851,3.017,6.256,6.256,0,0,0,5.01.956c3.659-.58,7.293-3.085,8.021-6.7.352-1.851.111-4.091,1.641-5.152s3.7.043,4.461,1.672A8.349,8.349,0,0,1,723.362,158.067Z" transform="translate(-699.977 -149.944)"/>
    </g>
  </g>
</svg>
