<svg xmlns="http://www.w3.org/2000/svg" xmlns:xlink="http://www.w3.org/1999/xlink" width="671.585" height="533.103" viewBox="0 0 671.585 533.103">
  <defs>
    <linearGradient id="linear-gradient" x1="0.508" y1="0.468" x2="0.508" y2="-0.532" gradientUnits="objectBoundingBox">
      <stop offset="0" stop-color="gray" stop-opacity="0.251"/>
      <stop offset="0.54" stop-color="gray" stop-opacity="0.122"/>
      <stop offset="1" stop-color="gray" stop-opacity="0.102"/>
    </linearGradient>
    <linearGradient id="linear-gradient-2" x1="-6.39" y1="0.315" x2="-6.39" y2="-0.3" xlink:href="#linear-gradient"/>
    <linearGradient id="linear-gradient-3" x1="-7.004" y1="0.126" x2="-7.004" y2="-0.489" xlink:href="#linear-gradient"/>
    <linearGradient id="linear-gradient-4" x1="-0.757" y1="0.537" x2="-0.757" y2="-0.463" xlink:href="#linear-gradient"/>
    <linearGradient id="linear-gradient-5" x1="0.5" y1="1" x2="0.5" y2="0" xlink:href="#linear-gradient"/>
  </defs>
  <g id="email" transform="translate(0.031 -0.004)">
    <rect id="Rectangle_21" data-name="Rectangle 21" width="194.097" height="119.284" transform="translate(-0.031 326.365) rotate(-16.6)" fill="url(#linear-gradient)"/>
    <rect id="Rectangle_22" data-name="Rectangle 22" width="187.518" height="111.325" transform="translate(3.095 328.52) rotate(-16.6)" fill="#fff"/>
    <g id="Group_14" data-name="Group 14" transform="translate(13.352 327.476)" opacity="0.6">
      <rect id="Rectangle_23" data-name="Rectangle 23" width="23.855" height="17.654" transform="translate(27.905 16.918) rotate(163.4)" fill="#090909"/>
      <rect id="Rectangle_24" data-name="Rectangle 24" width="91.611" height="5.723" transform="translate(121.401 24.888) rotate(163.4)" fill="#090909"/>
      <rect id="Rectangle_25" data-name="Rectangle 25" width="66.799" height="3.818" transform="translate(124.946 36.769) rotate(163.4)" fill="#090909"/>
    </g>
    <rect id="Rectangle_26" data-name="Rectangle 26" width="119.284" height="194.097" transform="translate(453.031 117.089) rotate(-78.98)" fill="url(#linear-gradient-2)"/>
    <rect id="Rectangle_27" data-name="Rectangle 27" width="111.325" height="187.518" transform="translate(456.319 112.65) rotate(-78.98)" fill="#fff"/>
    <g id="Group_15" data-name="Group 15" transform="translate(480.565 13.244)" opacity="0.6">
      <rect id="Rectangle_28" data-name="Rectangle 28" width="23.855" height="17.654" transform="translate(23.415 21.889) rotate(-168.98)" fill="#090909"/>
      <rect id="Rectangle_29" data-name="Rectangle 29" width="91.611" height="5.723" transform="translate(102.561 72.306) rotate(-168.98)" fill="#090909"/>
      <rect id="Rectangle_30" data-name="Rectangle 30" width="66.799" height="3.818" transform="translate(100.193 84.487) rotate(-168.98)" fill="#090909"/>
    </g>
    <rect id="Rectangle_31" data-name="Rectangle 31" width="119.284" height="194.097" transform="translate(484.881 278.65) rotate(-23.45)" fill="url(#linear-gradient-3)"/>
    <rect id="Rectangle_32" data-name="Rectangle 32" width="111.325" height="187.518" transform="translate(490.397 278.848) rotate(-23.45)" fill="#fff"/>
    <g id="Group_16" data-name="Group 16" transform="translate(546.522 245.386)" opacity="0.6">
      <rect id="Rectangle_33" data-name="Rectangle 33" width="23.855" height="17.654" transform="translate(34.733 28.911) rotate(-113.45)" fill="#090909"/>
      <rect id="Rectangle_34" data-name="Rectangle 34" width="91.611" height="5.723" transform="translate(37.961 122.687) rotate(-113.45)" fill="#090909"/>
      <rect id="Rectangle_35" data-name="Rectangle 35" width="66.799" height="3.818" transform="translate(26.583 127.619) rotate(-113.45)" fill="#090909"/>
    </g>
    <rect id="Rectangle_36" data-name="Rectangle 36" width="194.097" height="119.284" transform="translate(51.785 65.725) rotate(-19.53)" fill="url(#linear-gradient-4)"/>
    <rect id="Rectangle_37" data-name="Rectangle 37" width="187.518" height="111.325" transform="translate(55.023 67.732) rotate(-19.53)" fill="#fff"/>
    <g id="Group_17" data-name="Group 17" transform="translate(65.503 65.035)" opacity="0.6">
      <rect id="Rectangle_38" data-name="Rectangle 38" width="23.855" height="17.654" transform="translate(28.385 16.639) rotate(160.47)" fill="#090909"/>
      <rect id="Rectangle_39" data-name="Rectangle 39" width="91.611" height="5.723" transform="translate(122.165 19.83) rotate(160.47)" fill="#090909"/>
      <rect id="Rectangle_40" data-name="Rectangle 40" width="66.799" height="3.818" transform="translate(126.311 31.515) rotate(160.47)" fill="#090909"/>
    </g>
    <path id="Path_36" data-name="Path 36" d="M368.641,9.21,142.66,221.948V535.213H594.614V221.948Z" transform="translate(-32.638 -2.106)" fill="url(#linear-gradient-5)"/>
    <path id="Path_37" data-name="Path 37" d="M593,529.474H145.63v-306.9L369.32,14.16,593,222.571Z" transform="translate(-33.318 -3.238)" fill="#fff"/>
    <rect id="Rectangle_41" data-name="Rectangle 41" width="311.476" height="366.444" transform="translate(180.261 53.673)" fill="url(#linear-gradient-5)"/>
    <rect id="Rectangle_42" data-name="Rectangle 42" width="303.609" height="363.39" transform="translate(184.194 56.728)" fill="#fff"/>
    <path id="Path_38" data-name="Path 38" d="M145.63,284.38,369.32,437.831,145.63,591.282Z" transform="translate(-33.318 -65.046)" fill="#f5f5f5"/>
    <path id="Path_39" data-name="Path 39" d="M659.342,284.38,435.66,437.831,659.342,591.282Z" transform="translate(-99.657 -65.046)" fill="#f5f5f5"/>
    <path id="Path_40" data-name="Path 40" d="M310.28,736.2,525.185,569a14.184,14.184,0,0,1,17.546,0L757.653,736.2Z" transform="translate(-197.968 -209.974)" fill="url(#linear-gradient-5)"/>
    <path id="Path_41" data-name="Path 41" d="M310.28,738.407l214.905-159.9a14.7,14.7,0,0,1,17.546,0l214.921,159.9Z" transform="translate(-197.968 -212.179)" fill="#fff"/>
    <path id="Path_42" data-name="Path 42" d="M0,0H63.367V10.69H0Z" transform="translate(230.262 126.959)" fill="#242a28"/>
    <rect id="Rectangle_44" data-name="Rectangle 44" width="211.473" height="10.69" transform="translate(230.262 155.211)" fill="#f5f5f5"/>
    <rect id="Rectangle_45" data-name="Rectangle 45" width="211.473" height="10.69" transform="translate(230.262 173.528)" fill="#f5f5f5"/>
    <rect id="Rectangle_46" data-name="Rectangle 46" width="211.473" height="10.69" transform="translate(230.262 191.853)" fill="#f5f5f5"/>
    <rect id="Rectangle_47" data-name="Rectangle 47" width="211.473" height="10.69" transform="translate(230.262 210.171)" fill="#f5f5f5"/>
    <rect id="Rectangle_48" data-name="Rectangle 48" width="96.192" height="10.69" transform="translate(230.262 228.496)" fill="#f5f5f5"/>
    <path id="Path_43" data-name="Path 43" d="M0,0H96.192V10.69H0Z" transform="translate(345.543 228.496)" fill="#242a28"/>
  </g>
</svg>
